<?xml version="1.0" encoding="UTF-8"?> <svg xmlns="http://www.w3.org/2000/svg" viewBox="0 0 117.76 29.38"> <defs> <style>.cls-1{fill:#1ee494;}.cls-2{fill:#fff;}.cls-3{fill:#009378;}</style> </defs> <title>FlatРесурс 2</title> <g id="Слой_2" data-name="Слой 2"> <g id="Слой_1-2" data-name="Слой 1"> <path class="cls-1" d="M17.16,1.06a3.63,3.63,0,0,0-4.32,0L1.52,9.28a3.66,3.66,0,0,0-1.34,4.1L4.51,26.7A3.64,3.64,0,0,0,8,29.24H22A3.64,3.64,0,0,0,25.5,26.7l4.33-13.32a3.68,3.68,0,0,0-1.33-4.1Z"></path> <path class="cls-2" d="M11.33,5,1.76,18.24,4.51,26.7A3.64,3.64,0,0,0,8,29.24h9.36l9.33-13Z"></path> <path class="cls-3" d="M26.45,13.15,14.32,4.31a2.09,2.09,0,0,0-2.87.45l-.79,1L11,5.35c-2.6-1.63-3.9-.06-5.11,2.44C4.34,11,10.3,13.63,11.82,16.33a3.1,3.1,0,0,1,0,3.14,4.16,4.16,0,0,1-.44.73l.45.34-.47-.35a.88.88,0,0,0-1.24.2h0l-3.83,5.3A.91.91,0,0,0,6.48,27l.94.68a.89.89,0,0,0,1.25-.18h0l3.91-5.24A.9.9,0,0,0,12.39,21h0c1.93-2.8,1-4.74-.51-6.29C10,12.66,6,10.26,7,8.37s1.49-3.32,3.38-2.09l-.47.62a2.1,2.1,0,0,0,.46,2.89l.29.2,11.84,8.64a2.1,2.1,0,0,0,2.88-.45L26.9,16a2.08,2.08,0,0,0-.45-2.88"></path> <path class="cls-1" d="M76.9,4.11v7.67a2.06,2.06,0,0,0,4.11,0V4.11h2.06a1.81,1.81,0,0,0,2-1.61,2.26,2.26,0,0,0,0-.26A1.83,1.83,0,0,0,83.31.36H74.9a1.84,1.84,0,0,0-2.09,1.54,1.82,1.82,0,0,0,0,.33,1.82,1.82,0,0,0,1.74,1.89,1.45,1.45,0,0,0,.36,0ZM60.63,8.23c0,3.18,2.43,5.61,6.26,5.61,3.46,0,5.33-1.87,5.33-3.18,0-1-.65-1.68-2-1.68s-1.74,1.31-3.32,1.31a2,2,0,0,1-2.05-1.95.21.21,0,0,1,0-.11V5.61a2,2,0,0,1,1.93-2.06h.12c1.41,0,1.59,1.31,3.09,1.31s2.06-.65,2.06-1.68C72,1.87,70.17,0,66.9,0c-3.83,0-6.26,2.43-6.26,5.61Zm-4.88,0a2.09,2.09,0,0,1-4.12.71,2.12,2.12,0,0,1,0-.71V5.61a2.07,2.07,0,0,1,1.7-2.41,2.09,2.09,0,0,1,2.42,2.41ZM60,5.61C60,2.43,57.53,0,53.69,0s-6.26,2.43-6.26,5.61V8.23c0,3.18,2.43,5.61,6.26,5.61S60,11.41,60,8.23ZM39.09.37A1.83,1.83,0,0,0,37,2a1.41,1.41,0,0,0,0,.29v9.54a1.82,1.82,0,0,0,1.77,1.88,1.41,1.41,0,0,0,.29,0,1.82,1.82,0,0,0,2-1.57c0-.1,0-.2,0-.3V4.11h4.31a1.82,1.82,0,0,0,2-1.57c0-.1,0-.2,0-.3A1.82,1.82,0,0,0,45.74.36a1.38,1.38,0,0,0-.29,0Z"></path> <path class="cls-3" d="M109.52,19.65v7.67a2.06,2.06,0,0,0,4.11,0V19.65h2.06a1.88,1.88,0,0,0,.38-3.74h-8.61a1.88,1.88,0,1,0-.39,3.74,2.54,2.54,0,0,0,.39,0ZM96.59,17.59a2.06,2.06,0,0,0-4.11,0v9.73a2.06,2.06,0,0,0,4.11,0v-3h3.74v3a2.07,2.07,0,0,0,4.12,0V17.59a2.07,2.07,0,0,0-4.12,0v3.18H96.59Zm-9.27,6.18a2.08,2.08,0,1,1-4.11.64,1.72,1.72,0,0,1,0-.64V21.15a2.08,2.08,0,1,1,4.11-.64,2.29,2.29,0,0,1,0,.64Zm4.21-2.62c0-3.18-2.43-5.61-6.27-5.61S79,18,79,21.15v2.62c0,3.17,2.43,5.61,6.26,5.61s6.27-2.44,6.27-5.61ZM69.72,27.88c1.12,0,1.78-.66,2.25-1.87l1.4-3.55h.19l.84,4.86a2.06,2.06,0,0,0,2.15,1.87,1.79,1.79,0,0,0,2-1.56c0-.11,0-.21,0-.31a10.54,10.54,0,0,0-.19-1.68l-1.3-7.86a2.54,2.54,0,0,0-2.72-2.24,2.92,2.92,0,0,0-2.8,2.24l-1.68,4.38h-.19L68,17.78c-.56-1.4-1.41-2.24-2.81-2.24a2.54,2.54,0,0,0-2.71,2.24l-1.31,7.86a8.64,8.64,0,0,0-.26,1.68,1.8,1.8,0,0,0,1.71,1.88h.29a2.07,2.07,0,0,0,2.15-1.87l.85-4.86h.19L67.48,26C67.9,27.22,68.6,27.88,69.72,27.88ZM58.39,19.65a1.88,1.88,0,0,0,.38-3.74H51.28a1.82,1.82,0,0,0-2,1.57,1.51,1.51,0,0,0,0,.3v9.35A1.81,1.81,0,0,0,51,29a1.51,1.51,0,0,0,.3,0h7.3A1.88,1.88,0,0,0,59,25.26a2.41,2.41,0,0,0-.38,0H53.34V24.14H56.9a1.69,1.69,0,0,0,.26-3.37H53.34V19.65ZM42.66,25.07c3.74,0,5.8-2.05,5.8-4.58s-2.06-4.58-5.8-4.58H38.9a1.83,1.83,0,0,0-2,1.63,1.92,1.92,0,0,0,0,.24v9.54a1.81,1.81,0,0,0,1.76,1.88h.24a1.82,1.82,0,0,0,2-1.58,2.83,2.83,0,0,0,0-.29V25.07ZM41,21.71V19.28h1.68c.94,0,1.5.56,1.5,1.21a1.33,1.33,0,0,1-1.5,1.22Z"></path> </g> </g> </svg> 