<?xml version="1.0" encoding="UTF-8"?> <svg xmlns="http://www.w3.org/2000/svg" viewBox="0 0 130.15 13.85"> <defs> <style>.cls-1{fill:#1ee494;}.cls-2{fill:#009378;}</style> </defs> <title>Logo_shirРесурс 6</title> <g id="Слой_2" data-name="Слой 2"> <g id="Слой_1-2" data-name="Слой 1"> <path class="cls-1" d="M39.87,4.11v7.67a2.06,2.06,0,0,0,4.11,0V4.11H46a1.8,1.8,0,0,0,2-1.6,2.44,2.44,0,0,0,0-.27A1.81,1.81,0,0,0,46.28.37a1.92,1.92,0,0,0-.24,0H37.87a1.83,1.83,0,0,0-2.1,1.87,1.82,1.82,0,0,0,1.75,1.89,1.37,1.37,0,0,0,.35,0ZM23.6,8.23c0,3.18,2.43,5.61,6.26,5.61,3.46,0,5.33-1.87,5.33-3.18,0-1-.65-1.68-2-1.68s-1.74,1.31-3.32,1.31a2,2,0,0,1-2.05-1.94V5.61a2,2,0,0,1,1.94-2.06h.11c1.41,0,1.59,1.31,3.09,1.31S35,4.21,35,3.18C35,1.87,33.14,0,29.87,0,26,0,23.61,2.43,23.61,5.61Zm-4.88,0a2.09,2.09,0,1,1-4.12,0V5.61a2.09,2.09,0,1,1,4.12-.7,2.06,2.06,0,0,1,0,.7Zm4.21-2.62C22.93,2.43,20.5,0,16.66,0S10.4,2.43,10.4,5.61V8.23c0,3.18,2.43,5.61,6.26,5.61s6.27-2.43,6.27-5.61ZM2.06.37A1.85,1.85,0,0,0,0,2a2.62,2.62,0,0,0,0,.28v9.54a1.84,1.84,0,0,0,1.78,1.89,1.32,1.32,0,0,0,.28,0,1.82,1.82,0,0,0,2-1.57c0-.1,0-.2,0-.3V4.11H8.42a1.82,1.82,0,0,0,2-1.57c0-.1,0-.2,0-.3A1.82,1.82,0,0,0,8.72.36H2.06Z"></path> <path class="cls-2" d="M121.91,4.12v7.67a2.06,2.06,0,0,0,4.11,0V4.12h2.06a1.89,1.89,0,0,0,2.06-1.68A1.87,1.87,0,0,0,128.47.38a1.27,1.27,0,0,0-.39,0h-8.23a1.88,1.88,0,1,0-.39,3.74h2.45ZM109,2.06a2.06,2.06,0,0,0-4.11,0v9.73a2.06,2.06,0,0,0,4.11,0v-3h3.74v3a2.07,2.07,0,0,0,4.12,0V2.06a2.07,2.07,0,0,0-4.12,0V5.24H109ZM99.71,8.24a2.08,2.08,0,0,1-4.11.64,1.72,1.72,0,0,1,0-.64V5.62A2.08,2.08,0,0,1,99.71,5a2.36,2.36,0,0,1,0,.65Zm4.21-2.62c0-3.18-2.43-5.61-6.27-5.61s-6.26,2.46-6.26,5.61V8.24c0,3.17,2.43,5.61,6.26,5.61s6.27-2.44,6.27-5.61ZM82.11,12.35c1.12,0,1.78-.66,2.25-1.87l1.4-3.55H86l.84,4.86a2.06,2.06,0,0,0,2.15,1.87,1.8,1.8,0,0,0,2-1.57c0-.1,0-.2,0-.3a10.41,10.41,0,0,0-.19-1.68l-1.3-7.86A2.54,2.54,0,0,0,86.73,0a2.92,2.92,0,0,0-2.8,2.24L82.25,6.63h-.19L80.38,2.25C79.82.85,79,0,77.57,0a2.54,2.54,0,0,0-2.71,2.24l-1.31,7.86a9.47,9.47,0,0,0-.26,1.68A1.8,1.8,0,0,0,75,13.67h.29a2.08,2.08,0,0,0,2.15-1.87l.85-4.86h.19l1.39,3.54C80.29,11.69,81,12.35,82.11,12.35ZM70.78,4.12a1.89,1.89,0,0,0,2.06-1.68A1.87,1.87,0,0,0,71.17.38a1.28,1.28,0,0,0-.39,0H63.67a1.82,1.82,0,0,0-2,1.57,1.51,1.51,0,0,0,0,.3V11.6a1.81,1.81,0,0,0,1.75,1.88H71A1.89,1.89,0,0,0,73,11.79a1.87,1.87,0,0,0-1.67-2.06,1.28,1.28,0,0,0-.39,0H65.73V8.61h3.56a1.69,1.69,0,0,0,.26-3.37H65.73V4.12ZM55.05,9.54c3.74,0,5.8-2,5.8-4.58S58.79.38,55.05.38H51.29A1.82,1.82,0,0,0,49.3,2a1.93,1.93,0,0,0,0,.24v9.54a1.83,1.83,0,0,0,1.76,1.88h.24a1.82,1.82,0,0,0,2-1.59,1.32,1.32,0,0,0,0-.28V9.54ZM53.37,6.18V3.75h1.68c.94,0,1.5.56,1.5,1.21a1.33,1.33,0,0,1-1.5,1.22Z"></path> </g> </g> </svg> 